inDegrees=no
num_controls=7
num_derivatives=13
num_iterations=145
num_multipliers=7
num_parameters=0
num_slacks=7
num_states=26
objective=5.223306
objective_accelerations=0.475208
objective_balance=0.046398
objective_effort=0.446261
objective_height=4.152364
objective_ligament=0.103076
solver_duration=1606.554259
status=Solve_Succeeded
success=true
DataType=double
version=3
OpenSimVersion=4.4-2022-07-23-0e9fedc
endheader
time	/jointset/ground_pelvis/pelvis_tilt/value	/jointset/ground_pelvis/pelvis_tx/value	/jointset/ground_pelvis/pelvis_ty/value	/jointset/hip_l/hip_flexion_l/value	/jointset/hip_l/hip_adduction_l/value	/jointset/hip_l/hip_rotation_l/value	/jointset/back/lumbar_extension/value	/jointset/patellofemoral_l/patellar_flexion_l/value	/jointset/knee_l/knee_flexion_l/value	/jointset/knee_l/knee_adduction_l/value	/jointset/knee_l/knee_rotation_l/value	/jointset/ankle_l/ankle_angle_l/value	/jointset/subtalar_l/subtalar_angle_l/value	/jointset/ground_pelvis/pelvis_tilt/speed	/jointset/ground_pelvis/pelvis_tx/speed	/jointset/ground_pelvis/pelvis_ty/speed	/jointset/hip_l/hip_flexion_l/speed	/jointset/hip_l/hip_adduction_l/speed	/jointset/hip_l/hip_rotation_l/speed	/jointset/back/lumbar_extension/speed	/jointset/patellofemoral_l/patellar_flexion_l/speed	/jointset/knee_l/knee_flexion_l/speed	/jointset/knee_l/knee_adduction_l/speed	/jointset/knee_l/knee_rotation_l/speed	/jointset/ankle_l/ankle_angle_l/speed	/jointset/subtalar_l/subtalar_angle_l/speed	/forceset/tau_hip_flexion_l	/forceset/tau_hip_adduction_l	/forceset/tau_hip_rotation_l	/forceset/tau_knee_flexion_l	/forceset/tau_ankle_angle_l	/forceset/tau_subtalar_angle_l	/forceset/tau_lumbar_extension	lambda_cid13_p0	lambda_cid13_p1	lambda_cid13_p2	lambda_cid13_p3	lambda_cid13_p4	lambda_cid13_p5	lambda_cid14_p0	/jointset/ground_pelvis/pelvis_tilt/accel	/jointset/ground_pelvis/pelvis_tx/accel	/jointset/ground_pelvis/pelvis_ty/accel	/jointset/hip_l/hip_flexion_l/accel	/jointset/hip_l/hip_adduction_l/accel	/jointset/hip_l/hip_rotation_l/accel	/jointset/back/lumbar_extension/accel	/jointset/patellofemoral_l/patellar_flexion_l/accel	/jointset/knee_l/knee_flexion_l/accel	/jointset/knee_l/knee_adduction_l/accel	/jointset/knee_l/knee_rotation_l/accel	/jointset/ankle_l/ankle_angle_l/accel	/jointset/subtalar_l/subtalar_angle_l/accel	gamma_cid13_p0	gamma_cid13_p1	gamma_cid13_p2	gamma_cid13_p3	gamma_cid13_p4	gamma_cid13_p5	gamma_cid14_p0
1	-0.7011525121702712	-0.1678899119603079	0.6368260202792545	1.860971693386201	-0.3142806259707384	0.03619034609443962	-0.4363294860039518	0.9439717833861034	0.9439717833863162	-0.1745257705286241	0.174529274542228	-0.04339093433929541	-0.07226786761880323	-0.01097928169281978	0.000369519351460297	-0.002699839836712333	0.01589419540120236	0.0002868081005760304	0.002597372555706795	-2.316368271718985e-05	0.006795957594906275	0.006795957594905433	2.822726025029271e-05	-1.759300645037115e-05	0.0024262029500728	0.0006699789823128737	-0.4538713759952984	0.008860423548490813	-0.01969803473281597	-0.2035828791199466	0.215334009437224	0.04598533318445226	0.3600332869780435	23.02470220729563	-24.2137428356995	3.698760016599729	-0.9236902877152487	-717.7425933162241	-50.4073555569955	-12.69143588223134	2.244532214733449	0.4834072627869453	1.435621731258724	-6.007582881902906	-0.09506322140539353	-1.309885086546424	-0.01879470179725673	-3.686177449566912	-3.686177449567596	-0.02624469298445697	0.01007830694877865	-0.13080078455674	-0.07602773705713757	3.654227237907598e-10	1.807076881487453e-09	-2.16165158189758e-09	1.298259258521763e-10	8.322389719701806e-10	-5.606647685186456e-10	5.913750173272717e-10
1.01	-0.7011508438323379	-0.1678621183288842	0.6368706798966992	1.860831281218823	-0.3142818780086067	0.03615061024921189	-0.4363297535045974	0.9438556008866782	0.9438556008867033	-0.1745255624519615	0.1745291721134163	-0.04337309874279206	-0.07226433358710981	0.01131980029189163	0.005190619084083867	0.01162949601177565	-0.04397637726226282	-0.0005355476872278556	-0.01054175904183506	-3.194534024578099e-05	-0.03002386643387478	-0.03002386643388263	1.451288293877967e-05	-2.583951836316321e-06	0.001143186659849111	3.878873055023404e-05	-0.4538195165743601	0.008905417802406676	-0.01969215198820139	-0.2034864466050183	0.2152125114073685	0.04601100256920827	0.360010596486793	22.99401183704556	-24.21985351939322	3.700118068015577	-0.9271113983691802	-717.6348548969385	-50.41900711275824	-12.69873518616212	2.223623546766616	0.4816729434790067	1.431248964672775	-5.976757059061134	-0.07557197333940747	-1.315511752703469	0.007838768249358512	-3.678595781565703	-3.678595781565857	0.0112331506797563	-0.002743592251777924	-0.1267113001940642	-0.05637083629475357	-7.720777863032827e-10	-3.803469760236077e-09	8.162699723483721e-09	-1.024915123742816e-09	-2.218211341483386e-09	7.74964686214575e-09	-2.176629892601896e-09
1.02	-0.7009259792033062	-0.1677860713771368	0.6370585647632309	1.860092170804686	-0.3142913036475247	0.03597956617674578	-0.4363301570886258	0.9433714779665501	0.9433714779664225	-0.1745254579269019	0.1745292286157151	-0.04336802515897907	-0.07226705269134684	0.03365997653368857	0.01002018341621844	0.02594520998133982	-0.1038454539454266	-0.001347912109899601	-0.02366427289320188	-5.038035855585353e-05	-0.06679212654396453	-0.06679212654397522	7.516937002862867e-06	1.41932239944527e-05	-0.0001261995879401095	-0.000580648203572268	-0.453767657153456	0.008950412056354808	-0.01968626924372118	-0.2033900140900944	0.2150910133775141	0.04603667195399671	0.3599879059954949	22.95809588647943	-24.22642365358662	3.703119480042021	-0.933226274075505	-717.6082333812453	-50.42029476814961	-12.72912072771361	2.252751066150704	0.4851001826890333	1.432897355473912	-6.007283685842586	-0.09306494837892514	-1.306561537311352	-0.02072537395354696	-3.67586466582865	-3.675864665828498	-0.02490100670931105	0.0104319311920208	-0.1280747760700302	-0.07367707352910768	-2.149502083100796e-09	-9.461043371083465e-09	1.854841483331407e-08	-1.717344319082568e-09	-5.044416290754775e-09	1.619705583408825e-08	-4.954989574767493e-09
1.03	-0.7004777137920858	-0.1676616975499715	0.6373894575641296	1.858754700938449	-0.3143087815421066	0.03567743708635827	-0.4363306859094858	0.9425199672264453	0.942519967226456	-0.1745254206619615	0.1745294370039953	-0.04337565505365303	-0.07227590200373768	0.05597861257896308	0.01485480125336747	0.04022293895495486	-0.163615141252703	-0.002143125608429714	-0.03675355297257338	-4.550385042071499e-05	-0.1034977875944333	-0.103497787594451	-4.464405104773e-07	2.490674334436856e-05	-0.001405160065286898	-0.001185981166846457	-0.4531773262399377	0.00899633552409056	-0.01969465008322136	-0.2033641411874308	0.2150467945743086	0.04606737226533859	0.3596139673149104	22.97044820893476	-24.24658091426994	3.711657340364537	-0.9724653446279619	-717.2000324697719	-50.47210023477514	-12.78259488997164	2.219244883641503	0.4826749842855332	1.423647390968025	-5.956805735070678	-0.07206995126207034	-1.308919327008215	0.01257615929769463	-3.666080178712188	-3.666080178712917	0.011195867320353	-0.004003087644671843	-0.1286132350606619	-0.05347748547210909	-3.529374581803449e-09	-1.511909684896273e-08	2.89347561044143e-08	-2.405056046521754e-09	-7.868333022024304e-09	2.464586375849277e-08	-7.733454917874278e-09
1.04	-0.6998066970184498	-0.1674889710644215	0.6378628149992939	1.856820535302773	-0.3143340756518026	0.03524465357842438	-0.4363308695661931	0.9413017672050195	0.9413017672051636	-0.1745254750566705	0.1745296736974771	-0.04339623586339893	-0.07229070786131125	0.07821024902128185	0.01969071509313877	0.0544381368350945	-0.2231846078359773	-0.002911155133847759	-0.04979515640227933	1.865250175667867e-05	-0.1401299828071723	-0.1401299828071969	-1.081499431243409e-05	1.985426464811419e-05	-0.002716382602387645	-0.001771957239945987	-0.452586995326295	0.009042258991860893	-0.01970303092284552	-0.2033382682847961	0.2150025757710758	0.04609807257670982	0.3592400286344684	22.97755349574113	-24.26718706036313	3.721829095721728	-1.014192619861795	-716.8732374973961	-50.51386840109986	-12.85908396743631	2.235351145559639	0.4853593832134042	1.420391136778802	-5.967239541042136	-0.08762815375643837	-1.297026207378152	-0.008869405145296326	-3.661171498282696	-3.661171498282554	-0.02538204196698026	0.007278731582641683	-0.1345271880209471	-0.06980569549413344	-4.461539910192392e-09	-2.057505844671272e-08	3.829800939598471e-08	-3.861575170821408e-09	-1.045931651227355e-08	3.230609810404126e-08	-1.033781499773528e-08
1.05	-0.6989136193908464	-0.1672678575199996	0.6384779698504164	1.854291628768965	-0.314366897563185	0.03468172480362609	-0.4363304990114765	0.9397177559613025	0.9397177559612154	-0.1745256453848478	0.1745298149904018	-0.04343007416556291	-0.07231125907302499	0.1004074014899892	0.02453416203991488	0.06857816423756297	-0.2825666388696167	-0.003645408281748521	-0.06278006177840248	2.833625883162116e-05	-0.1766458296976631	-0.1766458296976736	-2.049856390681388e-05	7.939022206118956e-06	-0.004054764706259401	-0.002331656467792904	-0.4514232960202144	0.009079356577816975	-0.01972870509753372	-0.2034119605560997	0.2150938873654791	0.04612406503887755	0.3584671873106283	23.05238263863547	-24.30097095685729	3.737944519390238	-1.111667689926553	-716.1554225388531	-50.60678392603751	-12.95856898579062	2.212214291673455	0.4841615042195863	1.408605534523202	-5.919177906346052	-0.06515362635962044	-1.297653700234581	0.001818930329188292	-3.642823235045161	-3.642823235042567	0.0116466222921856	-0.005508817330942415	-0.1340157775353677	-0.04805928696776336	-5.379714389509033e-09	-2.602470467320867e-08	4.762929118819482e-08	-5.342119526272946e-09	-1.304302083874091e-08	3.994168952525049e-08	-1.293673428811985e-08
1.06	-0.6977985068397676	-0.1669982446753459	0.6392340843740684	1.851169803320439	-0.3144068279522542	0.03398926077553399	-0.4363308452858186	0.9377693798585544	0.9377693798582508	-0.1745258309213905	0.1745298206978781	-0.04347740069996101	-0.07233720872712592	0.1226172337246233	0.02939057513948769	0.08263007134166138	-0.3417683907760675	-0.004332850671748769	-0.07570220705475238	-0.0001247134162601933	-0.2130029546127009	-0.2130029546126977	-1.385666359130231e-05	-7.262827170815346e-06	-0.005414029048747895	-0.002851645717158496	-0.4502595967141273	0.009116454163744023	-0.01975437927212018	-0.2034856528274645	0.2151851989598432	0.04615005750101026	0.3576943459868062	23.12192374969549	-24.33518733166984	3.755680672150004	-1.211146159736786	-715.5194945433985	-50.69036142063425	-13.08093870106928	2.237887098744973	0.4879526137727095	1.402767077104778	-5.931183715604429	-0.07826600217627809	-1.284474187423457	-0.04141609157878437	-3.62942710319211	-3.629427103192077	-0.02211694798494536	0.006621410195561335	-0.1387036357443419	-0.0618636997978261	-7.351087545874575e-09	-3.205994209210497e-08	5.578767870437026e-08	-4.237795996194254e-09	-1.669423995887015e-08	4.714977087531588e-08	-1.534946459431968e-08
1.07	-0.6964615525308711	-0.1666799275235347	0.6401302411365815	1.847457128017657	-0.314453388821258	0.03316792634259254	-0.4363322953505285	0.9354582372648159	0.9354582372646749	-0.1745259120722807	0.1745296666328414	-0.04353835477319735	-0.07236813696220541	0.144742563801989	0.03428251149515998	0.09658303965844962	-0.4007093874118201	-0.004970077375912984	-0.08855367434687737	-6.707840977514812e-05	-0.2491985014100371	-0.2491985014100501	-1.090273602536868e-06	-2.177377130102695e-05	-0.006773392581339239	-0.003324671133394127	-0.4497588507794952	0.009333808291508684	-0.01974999293233205	-0.2031561305659182	0.2149532076917223	0.04630637694548378	0.3576007459844631	23.07600942916459	-24.40438224894293	3.777385974040075	-1.361940715734447	-715.2053897262167	-50.80089167050964	-13.22613129595468	2.195194038705086	0.4912620058160784	1.388821350817912	-5.866968011450849	-0.05506703127459175	-1.283848373707891	0.04408652458645805	-3.610555474787238	-3.610555474789213	0.01315895364948075	-0.005237748315465752	-0.134042856539481	-0.03862393325298131	-9.37848190846613e-09	-3.812632797868215e-08	6.38836782271396e-08	-2.995979493480959e-09	-2.040224178078993e-08	5.433511232798e-08	-1.775229123114798e-08
1.08	-0.6949042773059663	-0.166312401436294	0.6411653795106289	1.843156760673675	-0.3145060451626513	0.03221840416197017	-0.4363302224231345	0.9327859518017424	0.9327859518018217	-0.1745258284550726	0.1745294173780348	-0.04361280051066824	-0.07240351584559197	0.1666814169383066	0.03923236222536538	0.1104263936491179	-0.4593067990031554	-0.005551945149584013	-0.1013397565830612	0.0005798857097023351	-0.285231528478728	-0.2852315284787649	1.909696272863552e-05	-2.630077936025182e-05	-0.008112361894864915	-0.003741775378299168	-0.4492581048450269	0.009551162419212642	-0.01974560659246494	-0.2028266083044102	0.2147212164235829	0.04646269638989522	0.3575071459819467	23.02464682663223	-24.47396242745713	3.800682594948745	-1.514344983973088	-714.9757301336925	-50.90274181354526	-13.39403027762549	2.200591710535193	0.4995354886793822	1.380844211880809	-5.862466706721022	-0.06719421607762548	-1.271397176235234	0.07644973102240696	-3.596923157463079	-3.596923157464566	-0.02063277871644636	0.008618197409756502	-0.1346247919311186	-0.05067946553168084	-1.119880291539825e-08	-4.412377168657293e-08	7.108861667499119e-08	-2.075704482141856e-09	-2.40472810688148e-08	6.073789208569284e-08	-2.000950782705442e-08
